<svg xmlns="http://www.w3.org/2000/svg" version="1.1" xmlns:xlink="http://www.w3.org/1999/xlink" xmlns:svgjs="http://svgjs.com/svgjs" width="24" height="24" x="0" y="0" viewBox="0 0 512 512" style="enable-background:new 0 0 512 512" xml:space="preserve" class=""><g>
<g>
	<polygon style="--darkreader-inline-fill:#2b2f31;" points="411.826,272.696 478.609,272.696 478.609,239.304 411.826,239.304 411.826,205.913 
		0,205.913 0,406.261 33.391,406.261 33.391,439.652 66.783,439.652 66.783,473.043 100.174,473.043 100.174,506.435 
		311.652,506.435 311.652,473.043 345.043,473.043 345.043,439.652 378.435,439.652 378.435,406.261 411.826,406.261 
		478.609,406.261 478.609,372.87 411.826,372.87 	" fill="#c4c8f5" data-original="#c4c8f5" data-darkreader-inline-fill="" class=""></polygon>
	<rect x="478.609" y="272.696" style="--darkreader-inline-fill:#2b2f31;" width="33.391" height="100.174" fill="#c4c8f5" data-original="#c4c8f5" data-darkreader-inline-fill="" class=""></rect>
</g>
<polygon points="411.826,272.696 478.609,272.696 478.609,239.304 411.826,239.304 411.826,205.913 378.435,205.913 33.391,205.913 
	0,205.913 0,239.304 0,406.261 33.391,406.261 33.391,239.304 378.435,239.304 378.435,272.696 378.435,372.87 378.435,406.261 
	411.826,406.261 478.609,406.261 478.609,372.87 411.826,372.87 " fill="#000000" data-original="#000000" data-darkreader-inline-fill="" style="--darkreader-inline-fill:#000000;" class=""></polygon>
<rect x="478.609" y="272.696" width="33.391" height="100.174" fill="#000000" data-original="#000000" data-darkreader-inline-fill="" style="--darkreader-inline-fill:#000000;" class=""></rect>
<rect x="345.043" y="406.261" width="33.391" height="33.391" fill="#000000" data-original="#000000" data-darkreader-inline-fill="" style="--darkreader-inline-fill:#e8e6e3;" class=""></rect>
<rect x="311.652" y="439.652" width="33.391" height="33.391" fill="#000000" data-original="#000000" data-darkreader-inline-fill="" style="--darkreader-inline-fill:#e8e6e3;" class=""></rect>
<rect x="33.391" y="406.261" width="33.391" height="33.391" fill="#000000" data-original="#000000" data-darkreader-inline-fill="" style="--darkreader-inline-fill:#e8e6e3;" class=""></rect>
<rect x="66.783" y="439.652" width="33.391" height="33.391" fill="#000000" data-original="#000000" data-darkreader-inline-fill="" style="--darkreader-inline-fill:#e8e6e3;" class=""></rect>
<rect x="100.174" y="473.043" width="211.478" height="33.391" fill="#000000" data-original="#000000" data-darkreader-inline-fill="" style="--darkreader-inline-fill:#000000;" class=""></rect>
<rect x="300.522" y="72.348" width="33.391" height="33.391" fill="#000000" data-original="#000000" data-darkreader-inline-fill="" style="--darkreader-inline-fill:#e8e6e3;" class=""></rect>
<rect x="300.522" y="139.13" width="33.391" height="33.391" fill="#000000" data-original="#000000" data-darkreader-inline-fill="" style="--darkreader-inline-fill:#e8e6e3;" class=""></rect>
<rect x="267.13" y="105.739" width="33.391" height="33.391" fill="#000000" data-original="#000000" data-darkreader-inline-fill="" style="--darkreader-inline-fill:#e8e6e3;" class=""></rect>
<rect x="166.957" y="38.957" width="33.391" height="33.391" fill="#000000" data-original="#000000" data-darkreader-inline-fill="" style="--darkreader-inline-fill:#e8e6e3;" class=""></rect>
<rect x="200.348" y="72.348" width="33.391" height="33.391" fill="#000000" data-original="#000000" data-darkreader-inline-fill="" style="--darkreader-inline-fill:#e8e6e3;" class=""></rect>
<rect x="200.348" y="5.565" width="33.391" height="33.391" fill="#000000" data-original="#000000" data-darkreader-inline-fill="" style="--darkreader-inline-fill:#e8e6e3;" class=""></rect>
<rect x="200.348" y="139.13" width="33.391" height="33.391" fill="#000000" data-original="#000000" data-darkreader-inline-fill="" style="--darkreader-inline-fill:#e8e6e3;" class=""></rect>
<rect x="166.957" y="105.739" width="33.391" height="33.391" fill="#000000" data-original="#000000" data-darkreader-inline-fill="" style="--darkreader-inline-fill:#e8e6e3;" class=""></rect>
<rect x="100.174" y="72.348" width="33.391" height="33.391" fill="#000000" data-original="#000000" data-darkreader-inline-fill="" style="--darkreader-inline-fill:#e8e6e3;" class=""></rect>
<rect x="100.174" y="139.13" width="33.391" height="33.391" fill="#000000" data-original="#000000" data-darkreader-inline-fill="" style="--darkreader-inline-fill:#e8e6e3;" class=""></rect>
<rect x="66.783" y="105.739" width="33.391" height="33.391" fill="#000000" data-original="#000000" data-darkreader-inline-fill="" style="--darkreader-inline-fill:#e8e6e3;" class=""></rect>
<g>
	<rect x="66.783" y="372.87" style="--darkreader-inline-fill:#e8e6e3;" width="33.391" height="33.391" fill="#ffffff" data-original="#ffffff" data-darkreader-inline-fill=""></rect>
	<rect x="66.783" y="272.696" style="--darkreader-inline-fill:#181a1b;" width="33.391" height="66.783" fill="#ffffff" data-original="#ffffff" data-darkreader-inline-fill=""></rect>
</g>
<g>
</g>
<g>
</g>
<g>
</g>
<g>
</g>
<g>
</g>
<g>
</g>
<g>
</g>
<g>
</g>
<g>
</g>
<g>
</g>
<g>
</g>
<g>
</g>
<g>
</g>
<g>
</g>
<g>
</g>
</g></svg>