<svg xmlns="http://www.w3.org/2000/svg" version="1.1" xmlns:xlink="http://www.w3.org/1999/xlink" xmlns:svgjs="http://svgjs.com/svgjs" width="24" height="24" x="0" y="0" viewBox="0 0 479.25 479.25" style="enable-background:new 0 0 512 512" xml:space="preserve" class=""><g><path d="m30.68 300.38v59.88h29.94v29.94s16.73-.27 30 0c0 0-.06 19.79-.06 29.93h29.94v29.94h59.88v29.93h119.74v-29.93h59.88v-29.94h29.94v-29.93h29.94v-29.94h29.94v-59.88h29.93v-119.75h-29.94v-59.87h-29.94v-29.94h-29.94v-29.94h-29.93v-29.94h-59.88v-29.76c-17.73-.72-115.35-.43-119.75.34v29.42h-59.88v29.94h-29.94v29.94h-29.93v29.94h-29.94v59.87h-29.77c-.72 17.73-.43 115.37.35 119.75z" fill="#ffd541" data-original="#ffd541" data-darkreader-inline-fill="" style="--darkreader-inline-fill:#7c6000;" class=""></path><path d="m418.75 120.37h29.42a2.26 2.26 0 0 1 .35.34.91.91 0 0 1 .16.43v58.94h29.69v119.92h-29.68v-89.82h-29.2a.78.78 0 0 0 -.42.18 4.8 4.8 0 0 0 -.51.58v59.16h-29.82v29.76h-89.85v-29.94h-29.83c0-19.76 0-39.36 0-59a.89.89 0 0 0 -.15-.44c-.08-.13-.22-.24-.15-.17h-59.59v59.79h-30v29.68h-89.83v-29.85h-30v-59.75h-29a.84.84 0 0 0 -.43.16 2.9 2.9 0 0 0 -.34.36v89.3h-29.95v-119.75h29.38a2.32 2.32 0 0 0 .35-.35.75.75 0 0 0 .16-.42c0-19.59 0-39.18 0-59.11h29.99v59.71c20 .78 354.69.45 359.25-.34zm-119.75 359.25v-29.94h-119.75v29.94zm0-449.06v-29.77c-17.73-.72-115.35-.43-119.75.34v29.43zm-149.69 29.94h29.94v-29.94h-59.88v29.94zm149.69 0h59.87v-29.94h-59.87zm119.75 239.5v59.87h29.94v-59.87zm-119.75 119.75v29.93h59.87v-29.93zm-179.63-329.32v-29.93h-29.93v29.93zm239.5 0h29.94v-29.93h-29.94zm-269.43 29.94v-29.94h-29.94v29.94zm299.37 0h29.94v-29.94h-29.94zm0 239.5v29.94h29.94v-29.94zm-29.94 29.94v29.94h29.94v-29.94zm-329.31-29.94h29.94v-59.87h-29.94zm89.81 89.81h59.88v-29.93h-59.88zm-59.87-59.87h29.94v-29.94h-29.94zm29.94 29.94h29.93v-29.94h-29.93zm89.81-30.11c17.73.72 115.35.43 119.75-.34v-29.43h-119.75zm-.14-59.49h-29.69v29.58h29.69zm149.61 29.58v-29.73h-29.58v29.69z" fill="#141013" data-original="#141013" data-darkreader-inline-fill="" style="--darkreader-inline-fill:#0e0f0f;" class=""></path><path d="m89.44 120.37v29.94h-29.94v-29.94zm89.56 119.63v-29.71h-29.55v29.71zm209.56 0v-29.71h-29.56v29.71zm-269 .28v29.72h29.58v-29.74zm209.56 0v29.72h29.58v-29.74zm-209.75-179.78v29.93h29.94v-29.93zm-29.93 29.93v29.94h29.93v-29.94z" fill="#ffffff" data-original="#ffffff" data-darkreader-inline-fill="" style="--darkreader-inline-fill:#181a1b;"></path></g></svg>