<svg xmlns="http://www.w3.org/2000/svg" version="1.1" xmlns:xlink="http://www.w3.org/1999/xlink" xmlns:svgjs="http://svgjs.com/svgjs" width="24" height="24" x="0" y="0" viewBox="0 0 1000 1000" style="enable-background:new 0 0 512 512" xml:space="preserve" class=""><g><path d="m380 300h40v40h-40z" fill="#5d5d5d" data-original="#5d5d5d" data-darkreader-inline-fill="" style="--darkreader-inline-fill:#ada69c;"></path><path d="m580 300h40v40h-40z" fill="#5d5d5d" data-original="#5d5d5d" data-darkreader-inline-fill="" style="--darkreader-inline-fill:#ada69c;"></path><path d="m340 300h40v40h40v40h-80z" fill="#3d3d3d" data-original="#3d3d3d" data-darkreader-inline-fill="" style="--darkreader-inline-fill:#c1bcb4;"></path><path d="m540 300h40v40h40v40h-80z" fill="#3d3d3d" data-original="#3d3d3d" data-darkreader-inline-fill="" style="--darkreader-inline-fill:#c1bcb4;"></path><path clip-rule="evenodd" d="m540 220v40h-40v120h40v40h120v-40h40v-120h-40v-40zm0 160v-80h80v80z" fill="#131313" fill-rule="evenodd" data-original="#131313" data-darkreader-inline-fill="" style="--darkreader-inline-fill:#0e0f10;" class=""></path><path clip-rule="evenodd" d="m340 260v40h-40v80h40v40h80v-40h40v-80h-40v-40zm80 40v80h-80v-80z" fill="#131313" fill-rule="evenodd" data-original="#131313" data-darkreader-inline-fill="" style="--darkreader-inline-fill:#0e0f10;" class=""></path><path d="m300 460v40h40v40h40v-40h240v40h40v-40h40v-40z" fill="#131313" data-original="#131313" data-darkreader-inline-fill="" style="--darkreader-inline-fill:#0e0f10;" class=""></path><path d="m380 500h40v80h-40z" fill="#891e2b" data-original="#891e2b" data-darkreader-inline-fill="" style="--darkreader-inline-fill:#e17582;"></path><path d="m580 500h40v80h-40z" fill="#891e2b" data-original="#891e2b" data-darkreader-inline-fill="" style="--darkreader-inline-fill:#e17582;"></path><path d="m460 500h-40v160h160v-160h-40v120h-40v-40h-40z" fill="#ea323c" data-original="#ea323c" data-darkreader-inline-fill="" style="--darkreader-inline-fill:#a9111a;" class=""></path><path d="m460 500v80h40v40h40v-120z" fill="#c42430" data-original="#c42430" data-darkreader-inline-fill="" style="--darkreader-inline-fill:#9d1d26;" class=""></path><path d="m380 580h40v80h-40z" fill="#c42430" data-original="#c42430" data-darkreader-inline-fill="" style="--darkreader-inline-fill:#de4b56;" class=""></path><path d="m420 660v40h160v-40h40v-80h-40v80z" fill="#c42430" data-original="#c42430" data-darkreader-inline-fill="" style="--darkreader-inline-fill:#9d1d26;" class=""></path><path clip-rule="evenodd" d="m340 60v40h-40v40h-40v160h-40v360h-40v160h-40v80h-40v40h160v-40h40v-40h40v40h320v-40h40v40h40v40h160v-40h-40v-80h-40v-160h-40v-360h-40v-160h-40v-40h-40v-40zm240 640v-40h40v-80h40v-40h40v-80h-400v80h40v40h40v80h40v40zm120-280v-160h-40v-40h-120v40h-40v160zm-240 0v-120h-40v-40h-80v40h-40v120z" fill="#ffffff" fill-rule="evenodd" data-original="#ffffff" data-darkreader-inline-fill="" style="--darkreader-inline-fill:#181a1b;"></path><path d="m60 220h80v80h40v160h-80v-40h-40z" fill="#ffffff" data-original="#ffffff" data-darkreader-inline-fill="" style="--darkreader-inline-fill:#181a1b;"></path><path d="m860 220v80h-40v160h80v-40h40v-200z" fill="#ffffff" data-original="#ffffff" data-darkreader-inline-fill="" style="--darkreader-inline-fill:#181a1b;"></path><g fill="#c7cfdd" data-darkreader-inline-fill="" style="--darkreader-inline-fill:#313638;"><path d="m340 20h320v40h-320z" fill="#c7cfdd" data-original="#c7cfdd" data-darkreader-inline-fill="" style="--darkreader-inline-fill:#313638;"></path><path d="m300 100v-40h40v40z" fill="#c7cfdd" data-original="#c7cfdd" data-darkreader-inline-fill="" style="--darkreader-inline-fill:#b8c6d4;"></path><path d="m260 140v-40h40v40z" fill="#c7cfdd" data-original="#c7cfdd" data-darkreader-inline-fill="" style="--darkreader-inline-fill:#b8c6d4;"></path><path d="m260 140v160h-40v-160z" fill="#c7cfdd" data-original="#c7cfdd" data-darkreader-inline-fill="" style="--darkreader-inline-fill:#313638;"></path><path d="m700 100h-40v-40h40z" fill="#c7cfdd" data-original="#c7cfdd" data-darkreader-inline-fill="" style="--darkreader-inline-fill:#b8c6d4;"></path><path d="m740 140h-40v-40h40z" fill="#c7cfdd" data-original="#c7cfdd" data-darkreader-inline-fill="" style="--darkreader-inline-fill:#b8c6d4;"></path><path d="m740 140h40v160h-40z" fill="#c7cfdd" data-original="#c7cfdd" data-darkreader-inline-fill="" style="--darkreader-inline-fill:#313638;"></path><path d="m100 180h-40v40h-40v200h40v40h40v40h80v40h40v-160h-40v80h-80v-40h-40v-200h40z" fill="#c7cfdd" data-original="#c7cfdd" data-darkreader-inline-fill="" style="--darkreader-inline-fill:#313638;"></path><path d="m900 180h40v40h-40z" fill="#c7cfdd" data-original="#c7cfdd" data-darkreader-inline-fill="" style="--darkreader-inline-fill:#b8c6d4;"></path><path d="m940 420v-200h40v200z" fill="#c7cfdd" data-original="#c7cfdd" data-darkreader-inline-fill="" style="--darkreader-inline-fill:#313638;"></path><path d="m900 460v-40h40v40z" fill="#c7cfdd" data-original="#c7cfdd" data-darkreader-inline-fill="" style="--darkreader-inline-fill:#b8c6d4;"></path><path d="m900 460v40h-80v40h-40v-160h40v80z" fill="#c7cfdd" data-original="#c7cfdd" data-darkreader-inline-fill="" style="--darkreader-inline-fill:#313638;"></path><path d="m340 380h-40v40h40z" fill="#c7cfdd" data-original="#c7cfdd" data-darkreader-inline-fill="" style="--darkreader-inline-fill:#b8c6d4;"></path><path d="m420 380h40v40h-40z" fill="#c7cfdd" data-original="#c7cfdd" data-darkreader-inline-fill="" style="--darkreader-inline-fill:#b8c6d4;"></path><path d="m540 380h-40v40h40z" fill="#c7cfdd" data-original="#c7cfdd" data-darkreader-inline-fill="" style="--darkreader-inline-fill:#b8c6d4;"></path><path d="m660 380h40v40h-40z" fill="#c7cfdd" data-original="#c7cfdd" data-darkreader-inline-fill="" style="--darkreader-inline-fill:#b8c6d4;"></path><path d="m300 500h40v40h-40z" fill="#c7cfdd" data-original="#c7cfdd" data-darkreader-inline-fill="" style="--darkreader-inline-fill:#b8c6d4;"></path><path d="m340 540h40v40h-40z" fill="#c7cfdd" data-original="#c7cfdd" data-darkreader-inline-fill="" style="--darkreader-inline-fill:#b8c6d4;"></path><path d="m700 500h-40v40h-40v40h40v-40h40z" fill="#c7cfdd" data-original="#c7cfdd" data-darkreader-inline-fill="" style="--darkreader-inline-fill:#b8c6d4;"></path><path d="m220 620h-40v40h40z" fill="#c7cfdd" data-original="#c7cfdd" data-darkreader-inline-fill="" style="--darkreader-inline-fill:#b8c6d4;"></path><path d="m780 620h40v40h-40z" fill="#c7cfdd" data-original="#c7cfdd" data-darkreader-inline-fill="" style="--darkreader-inline-fill:#b8c6d4;"></path><path d="m180 780h-40v40h-40v80h-40v40h40v-40h40v-80h40z" fill="#c7cfdd" data-original="#c7cfdd" data-darkreader-inline-fill="" style="--darkreader-inline-fill:#313638;"></path><path d="m820 780h40v40h-40z" fill="#c7cfdd" data-original="#c7cfdd" data-darkreader-inline-fill="" style="--darkreader-inline-fill:#b8c6d4;"></path><path d="m900 900v-80h-40v80z" fill="#c7cfdd" data-original="#c7cfdd" data-darkreader-inline-fill="" style="--darkreader-inline-fill:#b8c6d4;"></path><path d="m900 900v40h40v-40z" fill="#c7cfdd" data-original="#c7cfdd" data-darkreader-inline-fill="" style="--darkreader-inline-fill:#b8c6d4;"></path><path d="m300 860h40v40h-40z" fill="#c7cfdd" data-original="#c7cfdd" data-darkreader-inline-fill="" style="--darkreader-inline-fill:#b8c6d4;"></path><path d="m300 900v40h-40v-40z" fill="#c7cfdd" data-original="#c7cfdd" data-darkreader-inline-fill="" style="--darkreader-inline-fill:#b8c6d4;"></path><path d="m660 900v40h-320v-40z" fill="#c7cfdd" data-original="#c7cfdd" data-darkreader-inline-fill="" style="--darkreader-inline-fill:#313638;"></path><path d="m700 900h-40v-40h40z" fill="#c7cfdd" data-original="#c7cfdd" data-darkreader-inline-fill="" style="--darkreader-inline-fill:#b8c6d4;"></path><path d="m700 900h40v40h-40z" fill="#c7cfdd" data-original="#c7cfdd" data-darkreader-inline-fill="" style="--darkreader-inline-fill:#b8c6d4;"></path></g><path d="m100 180h40v40h-40z" fill="#92a1b9" data-original="#92a1b9" data-darkreader-inline-fill="" style="--darkreader-inline-fill:#afa99e;"></path><path d="m180 300h-40v-80h40z" fill="#92a1b9" data-original="#92a1b9" data-darkreader-inline-fill="" style="--darkreader-inline-fill:#afa99e;"></path><path d="m180 300h40v80h-40z" fill="#92a1b9" data-original="#92a1b9" data-darkreader-inline-fill="" style="--darkreader-inline-fill:#afa99e;"></path><path d="m860 180h40v40h-40z" fill="#92a1b9" data-original="#92a1b9" data-darkreader-inline-fill="" style="--darkreader-inline-fill:#afa99e;"></path><path d="m820 300v-80h40v80z" fill="#92a1b9" data-original="#92a1b9" data-darkreader-inline-fill="" style="--darkreader-inline-fill:#afa99e;"></path><path d="m820 300v80h-40v-80z" fill="#92a1b9" data-original="#92a1b9" data-darkreader-inline-fill="" style="--darkreader-inline-fill:#afa99e;"></path><path d="m100 460h-40v40h40v40h80v80h-40v160h-40v40h-40v80h-40v40h40v40h240v-40h40v40h320v-40h40v40h240v-40h40v-40h-40v-40h-40v40h40v40h-240v-40h-40v40h-320v-40h-40v40h-240v-40h40v-80h40v-40h40v-160h40v-80h-40v-40h-80z" fill="#92a1b9" data-original="#92a1b9" data-darkreader-inline-fill="" style="--darkreader-inline-fill:#3e4b60;"></path><path d="m900 460h40v40h-40z" fill="#92a1b9" data-original="#92a1b9" data-darkreader-inline-fill="" style="--darkreader-inline-fill:#afa99e;"></path><path d="m820 620h-40v-80h40v-40h80v40h-40v40h-40z" fill="#92a1b9" data-original="#92a1b9" data-darkreader-inline-fill="" style="--darkreader-inline-fill:#3e4b60;"></path><path d="m860 780h-40v-160h40z" fill="#92a1b9" data-original="#92a1b9" data-darkreader-inline-fill="" style="--darkreader-inline-fill:#3e4b60;"></path><path d="m860 780h40v40h-40z" fill="#92a1b9" data-original="#92a1b9" data-darkreader-inline-fill="" style="--darkreader-inline-fill:#afa99e;"></path></g></svg>